<?xml version="1.0" encoding="UTF-8"?>
<!DOCTYPE svg PUBLIC "-//W3C//DTD SVG 1.1//EN" "http://www.w3.org/Graphics/SVG/1.1/DTD/svg11.dtd">
<!-- Creator: CorelDRAW -->
<svg xmlns="http://www.w3.org/2000/svg" xml:space="preserve" width="2048px" height="2048px" style="shape-rendering:geometricPrecision; text-rendering:geometricPrecision; image-rendering:optimizeQuality; fill-rule:evenodd; clip-rule:evenodd"
viewBox="0 0 2048 2048"
 xmlns:xlink="http://www.w3.org/1999/xlink">
 <defs>
  <style type="text/css">
   <![CDATA[
    .str0 {stroke:#E6E6E6;stroke-width:40.0004}
    .fil2 {fill:none}
    .fil1 {fill:#00796B}
    .fil0 {fill:#009688}
    .fil17 {fill:#212121}
    .fil3 {fill:#333333}
    .fil20 {fill:#381913}
    .fil4 {fill:#424242}
    .fil11 {fill:gray}
    .fil14 {fill:#999999}
    .fil6 {fill:#A3A3A3}
    .fil16 {fill:#B71C1C}
    .fil7 {fill:#CCCCCC}
    .fil5 {fill:#D50000}
    .fil18 {fill:#E6E6E6}
    .fil23 {fill:#EB8B05}
    .fil24 {fill:#FFFFFE}
    .fil9 {fill:#1A1A1A;fill-rule:nonzero}
    .fil10 {fill:#212121;fill-rule:nonzero}
    .fil12 {fill:#424242;fill-rule:nonzero}
    .fil13 {fill:#666666;fill-rule:nonzero}
    .fil25 {fill:gray;fill-rule:nonzero}
    .fil19 {fill:#B71C1C;fill-rule:nonzero}
    .fil8 {fill:#CCCCCC;fill-rule:nonzero}
    .fil15 {fill:#E6E6E6;fill-rule:nonzero}
    .fil21 {fill:#F89303;fill-rule:nonzero}
    .fil22 {fill:#FFA301;fill-rule:nonzero}
   ]]>
  </style>
   <clipPath id="id0">
    <path d="M1024 -0.0011811c565.541,0 1024,458.461 1024,1024 0,565.541 -458.461,1024 -1024,1024 -565.541,0 -1024,-458.461 -1024,-1024 0,-565.541 458.461,-1024 1024,-1024z"/>
   </clipPath>
 </defs>
 <g id="Layer_x0020_1">
  <metadata id="CorelCorpID_0Corel-Layer"/>
  <path class="fil0" d="M1024 -0.0011811c565.541,0 1024,458.461 1024,1024 0,565.541 -458.461,1024 -1024,1024 -565.541,0 -1024,-458.461 -1024,-1024 0,-565.541 458.461,-1024 1024,-1024z"/>
  <g style="clip-path:url(#id0)">
   <g id="_452519912">
    <path id="_4525184241" class="fil1" d="M1138.22 666.491l-1.32402 0.588189 -1.30748 0.602363 -1.29213 0.612993 -1.27323 0.622441 -1.25433 0.630709c-0.780709,0.396851 -1.55906,0.801969 -2.33386,1.21417 -0.774804,0.412205 -1.54606,0.831497 -2.31496,1.25787 -0.768898,0.426378 -1.53425,0.858662 -2.29606,1.29803 -0.762993,0.43937 -1.52126,0.884646 -2.27835,1.33701 -0.755906,0.452363 -1.50945,0.90945 -2.25945,1.37362 -0.750001,0.464174 -1.49764,0.933072 -2.24173,1.40788 -0.744095,0.474804 -1.48583,0.954331 -2.22402,1.43976 -0.73819,0.485433 -1.47402,0.975591 -2.2063,1.46929 -0.732284,0.494882 -1.46102,0.992127 -2.1874,1.49646 -0.726379,0.50315 -1.45039,1.01102 -2.17087,1.52244 -0.720473,0.511418 -1.4374,1.02638 -2.15197,1.54488 -0.714567,0.518504 -1.42677,1.04055 -2.13543,1.56614 -0.708662,0.525591 -1.41496,1.05354 -2.11772,1.58504l-2.10118 1.60039 -2.08347 1.61575 -1.74921 1.37717 -3.85512 -3.85512c-0.173622,-0.200788 -0.36378,-0.380315 -0.56693,-0.536221 -0.20315,-0.155906 -0.419292,-0.290551 -0.644882,-0.401575 -0.225591,-0.111024 -0.459449,-0.198425 -0.699213,-0.263386 -0.239764,-0.0649607 -0.484252,-0.106299 -0.731103,-0.125197 -0.246851,-0.0188977 -0.496063,-0.011811 -0.742914,0.0165354 -0.246851,0.0295276 -0.49252,0.080315 -0.731103,0.157087 -0.239764,0.0767717 -0.47126,0.177165 -0.69567,0.302362 -0.223229,0.125197 -0.43937,0.274016 -0.640158,0.447638 -0.201969,0.173622 -0.380315,0.36378 -0.537402,0.56693 -0.157087,0.20315 -0.290551,0.419292 -0.401575,0.644882 -0.111024,0.225591 -0.198425,0.459449 -0.263386,0.699213 -0.0649607,0.239764 -0.10748,0.485433 -0.125197,0.732284 -0.0188977,0.246851 -0.0129921,0.496063 0.0153543,0.742914 0.0295276,0.246851 0.0814961,0.491339 0.158268,0.731103 0.0767717,0.238583 0.175984,0.47126 0.301181,0.69567 0.124016,0.22441 0.274016,0.438189 0.447638,0.640158l2.51221 2.9126 -38.7402 33.404c-0.23504,-0.0933072 -0.475985,-0.168898 -0.719292,-0.229134 -0.244488,-0.0602363 -0.491339,-0.103937 -0.740552,-0.131102 -0.249213,-0.0271654 -0.499607,-0.0377953 -0.751182,-0.0318898 -0.250394,0.00590552 -0.500788,0.0283465 -0.750001,0.0673229 -0.248032,0.0389764 -0.496063,0.0956694 -0.739371,0.168898 -0.243307,0.0732284 -0.48189,0.161811 -0.715749,0.269292 -0.232677,0.106299 -0.46063,0.232677 -0.681497,0.373229 -0.219685,0.141732 -0.432284,0.298819 -0.636615,0.474804 -0.291733,0.251575 -0.551575,0.527953 -0.778347,0.822048 -0.226772,0.295276 -0.421654,0.608268 -0.582284,0.935434 -0.16063,0.325985 -0.28937,0.666142 -0.382677,1.01457 -0.0944883,0.347244 -0.154725,0.703938 -0.18189,1.06181 -0.0271654,0.357874 -0.0188977,0.719292 0.022441,1.07717 0.0413386,0.357874 0.11811,0.714567 0.229134,1.06063 0.111024,0.346063 0.256299,0.68504 0.438189,1.00984 0.180709,0.324803 0.396851,0.635434 0.649607,0.928347l9.75355 11.3102c0.183071,0.211417 0.377953,0.4063 0.583465,0.583465l45.8209 45.8209 -3.0378 0c-0.10748,0 -0.212599,0.0106299 -0.314173,0.0318898 -0.101575,0.0212599 -0.199606,0.0519685 -0.292914,0.090945 -0.0933072,0.0401575 -0.18189,0.0885827 -0.265748,0.145276 -0.0826772,0.056693 -0.16063,0.120473 -0.231496,0.191339 -0.0708662,0.0708662 -0.134646,0.147638 -0.191339,0.231496 -0.056693,0.0826772 -0.106299,0.172441 -0.145276,0.265748 -0.0401575,0.0933072 -0.0708662,0.191339 -0.090945,0.292914 -0.0212599,0.101575 -0.0318898,0.205512 -0.0318898,0.314173l0 0.357874 -5.66693 0c-0.205512,0 -0.405118,0.0212599 -0.598819,0.0614174 -0.193701,0.0401575 -0.381496,0.0968505 -0.559843,0.173622 -0.178347,0.0755906 -0.347244,0.168898 -0.505512,0.276378 -0.158268,0.10748 -0.307087,0.230315 -0.441733,0.364961 -0.134646,0.134646 -0.257481,0.283465 -0.364961,0.441733 -0.10748,0.158268 -0.199606,0.328347 -0.276378,0.506693 -0.0755906,0.177165 -0.134646,0.364961 -0.173622,0.558662 -0.0401575,0.193701 -0.0614174,0.393307 -0.0614174,0.598819l0 5.14252 -1.99488 0.0531496 -1.99606 0.0673229 -1.99843 0.0838583 -1.99961 0.0980316 -2.00197 0.113386 -2.00433 0.12874 -2.00551 0.144095 -2.00788 0.161811 -2.01024 0.175984 -2.0126 0.193701 -2.01614 0.209055 -2.01732 0.226772 -2.02205 0.243307 -2.02323 0.261024 -2.02795 0.277559 -2.03032 0.295276 -2.03386 0.311811 -2.0374 0.330709 -2.04095 0.349607c-0.681497,0.119291 -1.36299,0.239764 -2.04449,0.366142l-2.04921 0.386221 -2.05276 0.403937 -2.05748 0.422835c-0.686221,0.144095 -1.37362,0.290551 -2.06103,0.441733l-2.06575 0.46063 -2.07047 0.480709 -2.07402 0.499607 -2.07992 0.519685 -2.08465 0.539764 -2.08937 0.559843c-0.696851,0.188977 -1.39606,0.382677 -2.09528,0.579922l-2.1 0.601182c-1.19291,0.346063 -2.36103,0.712205 -3.50551,1.09724 -1.14449,0.38504 -2.26654,0.787796 -3.36614,1.20945 -1.09961,0.421654 -2.17559,0.861024 -3.23032,1.31811 -1.05473,0.457087 -2.08701,0.933072 -3.09803,1.42323 -1.01102,0.491339 -1.99961,0.999213 -2.96929,1.52244 -0.969686,0.52441 -1.91929,1.06417 -2.84764,1.61929 -0.928347,0.555119 -1.83662,1.12441 -2.72599,1.71024 -0.889371,0.584646 -1.76102,1.18465 -2.6126,1.79882 -0.851575,0.614174 -1.68307,1.24252 -2.49921,1.88268 -0.814961,0.641339 -1.61339,1.29331 -2.3941,1.96063 -0.780709,0.666142 -1.54252,1.34646 -2.28898,2.0374 -0.746457,0.690945 -1.47638,1.3937 -2.19095,2.10827 -0.714567,0.713386 -1.41378,1.43858 -2.09646,2.17441 -0.682678,0.735827 -1.35118,1.48228 -2.00433,2.23819 -0.65315,0.755906 -1.29331,1.52126 -1.91811,2.29606 -0.602363,0.746457 -1.19055,1.50354 -1.76929,2.26536l-0.0661418 0.0862205 -0.0011811 0 -0.0696851 0.0956694c-0.574016,0.761812 -1.13622,1.52835 -1.68662,2.30551 -0.572835,0.807875 -1.13386,1.62402 -1.68307,2.44725 -0.549213,0.823229 -1.08543,1.65354 -1.61221,2.48977 -0.525591,0.836221 -1.04173,1.67953 -1.54606,2.52756 -0.504331,0.848032 -0.999213,1.70315 -1.48347,2.56181 -0.484252,0.858662 -0.961418,1.72205 -1.42677,2.59016 -0.466536,0.868111 -0.922442,1.73977 -1.37126,2.61614 -0.448819,0.875198 -0.890552,1.7563 -1.32284,2.63858 -0.432284,0.882284 -0.858662,1.76693 -1.27677,2.65394 -0.389764,0.826772 -0.773623,1.65591 -1.15158,2.48622l-202.426 -202.426c-0.398032,-0.409843 -0.801969,-0.811418 -1.20945,-1.20591l-0.0236221 -0.0236221 -0.046063 -0.0425197c-0.376772,-0.36378 -0.758268,-0.721654 -1.14331,-1.07244l-0.0720473 -0.0673229 -0.112205 -0.0980316c-0.367323,-0.33189 -0.737008,-0.657875 -1.1126,-0.977954l-0.0673229 -0.0590552 -0.0885827 -0.0720473c-0.38504,-0.325985 -0.773623,-0.644882 -1.16575,-0.957875l-0.068504 -0.056693 -0.0649607 -0.0496063c-0.389764,-0.309449 -0.783071,-0.612993 -1.1811,-0.90945l-0.106299 -0.0814961 -0.0755906 -0.0543308c-0.420473,-0.31063 -0.844489,-0.614174 -1.27323,-0.911812l-0.0366142 -0.0259843 -0.0200788 -0.0141732c-0.437008,-0.301181 -0.878741,-0.595276 -1.3252,-0.883465l-0.0720473 -0.0484252 -0.0448819 -0.0283465c-0.448819,-0.288189 -0.901182,-0.568111 -1.35945,-0.842127l-0.046063 -0.0271654 -0.011811 -0.00708662c-0.47126,-0.281103 -0.948426,-0.553937 -1.42913,-0.819686l-0.0437008 -0.0248032 -0.0744095 -0.0401575c-0.445276,-0.244488 -0.894095,-0.483071 -1.34882,-0.714567l-0.0944883 -0.0496063 -0.133465 -0.0649607c-0.435827,-0.219685 -0.876379,-0.434646 -1.32047,-0.643701l-0.100394 -0.0484252 -0.105118 -0.0472441c-0.468898,-0.217323 -0.94252,-0.427559 -1.41969,-0.633071l-0.0649607 -0.0295276 -0.0519685 -0.0212599c-0.507874,-0.216142 -1.02165,-0.426378 -1.54134,-0.628347l-0.0330709 -0.0141732 -0.022441 -0.00826772c-0.509056,-0.198425 -1.02402,-0.389764 -1.5437,-0.574016l-0.0968505 -0.0354331 -0.0484252 -0.0165354c-0.544489,-0.191339 -1.09488,-0.376772 -1.65236,-0.553937 -0.571654,-0.18189 -1.14803,-0.354331 -1.73268,-0.520867l-0.00708662 -0.00236221 -0.0165354 -0.00472441c-0.550394,-0.155906 -1.10669,-0.305906 -1.6689,-0.448819l-0.0933072 -0.0248032 -0.12874 -0.0307087c-0.540945,-0.135827 -1.0878,-0.264567 -1.64055,-0.387402l-0.0507874 -0.011811 -0.0614174 -0.0129921c-0.570473,-0.126378 -1.14685,-0.245669 -1.72914,-0.357874l-0.068504 -0.0141732 -0.080315 -0.0141732c-0.563386,-0.10748 -1.13268,-0.209055 -1.70788,-0.304725l-0.112205 -0.0200788 -0.0933072 -0.0141732c-0.605906,-0.0992127 -1.2189,-0.191339 -1.8378,-0.276378l-0.0177165 -0.00236221c-0.641339,-0.0874016 -1.28976,-0.167717 -1.9441,-0.240945l-0.0354331 -0.00472441 -0.0637796 -0.00708662c-1.29095,-0.142913 -2.60906,-0.255118 -3.95433,-0.341339l-0.0838583 -0.00590552 -0.142913 -0.00708662c-0.618898,-0.0377953 -1.24488,-0.0696851 -1.87559,-0.0968505l-0.0992127 -0.00472441 -0.125197 -0.00354331c-0.615355,-0.0236221 -1.2378,-0.0425197 -1.86496,-0.0543308l-0.173622 -0.00472441 -0.166536 -0.0011811c-0.627166,-0.0106299 -1.25906,-0.0153543 -1.89685,-0.0141732l-0.145276 -0.0011811 -0.131102 0.0011811c-0.690945,0.00236221 -1.3878,0.0129921 -2.09173,0.0283465l-0.0330709 0 -0.0188977 0.0011811c-0.690945,0.0153543 -1.3878,0.0377953 -2.09291,0.0661418l-0.191339 0.00590552 -0.115748 0.00590552c-0.737008,0.0307087 -1.48347,0.068504 -2.23583,0.114567l-2.52992 0.141732 -2.59134 0.124016 -2.64803 0.108662 -2.70236 0.090945 -2.75551 0.0767717 -2.80512 0.0614174 -2.85236 0.0472441 -2.89725 0.034252 -0.0011811 0 -2.93858 0.0200788 -2.97992 0.00826772 -3.01654 -0.00472441 -3.05197 -0.0153543 -3.08386 -0.0259843 -3.11339 -0.0366142 -3.13937 -0.046063 -3.16536 -0.0543308 0 -0.0011811 -1.59095 -0.0307087 -1.59567 -0.0318898 -3.2067 -0.0720473 -3.22323 -0.0791339 -3.23859 -0.0862205 -3.24922 -0.0921261 -3.25866 -0.0968505 -3.26693 -0.102756 -1.63465 -0.0531496 -1.63465 -0.0543308 -0.0011811 0 -1.63583 -0.0555119 -1.63583 -0.0555119 -3.27166 -0.114567 -3.26693 -0.116929 -3.26221 -0.119291 -3.25394 -0.121654 -3.24331 -0.121654 -3.22914 -0.121654 -3.21378 -0.122835 -4.11496 -0.155906 -4.08189 -0.154725 -4.04646 -0.15 -4.0063 -0.144095 -3.9626 -0.138189 -3.91536 -0.129921 -3.86457 -0.120473 -3.80788 -0.109843 -3.75 -0.0968505 -3.68622 -0.0838583 -3.62008 -0.0673229 -3.54922 -0.0519685 -3.47599 -0.0330709 -3.39685 -0.0141732c-1.1185,-0.0011811 -2.22284,0 -3.31418,0.00590552 -1.09134,0.00590552 -2.16732,0.0153543 -3.22914,0.0295276 -1.06181,0.0129921 -2.10827,0.0295276 -3.13937,0.0519685 -1.0311,0.0212599 -2.04685,0.0472441 -3.04607,0.0779528 -0.999213,0.0295276 -1.98189,0.0649607 -2.94803,0.103937 -0.966142,0.0389764 -1.91575,0.0826772 -2.84764,0.131102 -0.93189,0.0484252 -1.84606,0.103937 -2.74252,0.161811 -0.896457,0.0590552 -1.77402,0.122835 -2.63386,0.191339 -0.859843,0.0696851 -1.69843,0.142913 -2.52047,0.223229 -0.820867,0.080315 -1.62284,0.165354 -2.40473,0.257481 -0.78189,0.090945 -1.5437,0.188977 -2.28425,0.292914 -0.740552,0.102756 -1.46102,0.212599 -2.16024,0.328347 -0.699213,0.115748 -1.37599,0.237402 -2.0315,0.366142 -0.655512,0.12874 -1.28976,0.263386 -1.9004,0.405118 -0.61063,0.141732 -1.2,0.28937 -1.76457,0.445276 -0.565748,0.155906 -1.10787,0.317717 -1.6252,0.487796 -0.517323,0.170079 -1.01221,0.347244 -1.48228,0.531496 -0.468898,0.184252 -0.914174,0.375591 -1.33465,0.575197 -1.09488,0.519685 -2.15788,1.08189 -3.18898,1.68189 -1.0311,0.6 -2.0315,1.23662 -3.00118,1.91103 -0.969686,0.673229 -1.90866,1.38189 -2.81811,2.12362 -0.90945,0.740552 -1.78937,1.51417 -2.64095,2.31614 -0.851575,0.801969 -1.67599,1.63347 -2.47087,2.49095 -0.794883,0.857481 -1.56378,1.74095 -2.30433,2.64685 -0.741733,0.905906 -1.4563,1.83543 -2.14488,2.78386 -0.688583,0.948426 -1.35236,1.91811 -1.99016,2.90315 -0.638977,0.98504 -1.25197,1.9878 -1.84252,3.00355 -0.590552,1.01575 -1.1563,2.04449 -1.69961,3.08504 -0.543308,1.03937 -1.06417,2.09055 -1.5626,3.14764 -0.498426,1.05827 -0.975591,2.12362 -1.4315,3.19252 -0.455906,1.07008 -0.889371,2.1437 -1.30512,3.21851 -0.414567,1.0748 -0.810237,2.15315 -1.18583,3.22677 -0.375591,1.0748 -0.733465,2.14725 -1.07244,3.21496 -0.338977,1.06772 -0.659056,2.13071 -0.96378,3.18544 -0.303544,1.05473 -0.590552,2.10118 -0.861024,3.13701 -0.270473,1.03583 -0.525591,2.05984 -0.764174,3.06969 -0.238583,1.00984 -0.462992,2.00669 -0.672048,2.98465 -0.209055,0.979135 -0.4063,1.94055 -0.588189,2.88071 -0.18189,0.941339 -0.350788,1.86142 -0.506693,2.75906 -0.155906,0.896457 -0.3,1.77047 -0.433465,2.61732 -0.132284,0.846851 -0.253937,1.66654 -0.364961,2.45788 -0.111024,0.790158 -0.211417,1.55079 -0.302362,2.27835 -0.090945,0.72756 -0.173622,1.42441 -0.245669,2.08347 -0.0732284,0.659056 -0.138189,1.28268 -0.194882,1.86732l-0.148819 1.63347 -0.108662 1.38071 -0.0755906 1.11024 -0.046063 0.819686 -0.0248032 0.512599 -0.00708662 0.185433 -0.0897638 1.2378 -0.0011811 2.52756 -0.00354331 2.51103 -0.00590552 2.49331 -0.00826772 2.47559 -0.0106299 2.45788 -0.011811 2.44134 -0.0153543 2.42481 -0.0165354 2.40709 -0.0188977 2.38937 -0.0212599 2.37284 -0.022441 2.3563 -0.0248032 2.33977 -0.0259843 2.32323 -0.0283465 2.30669 -0.0295276 2.28898 -0.0318898 2.27362 -0.0330709 2.25591 -0.034252 2.24055 -0.0366142 2.22402 -0.0377953 2.20748 -0.0389764 2.19213 -0.0401575 2.17559 -0.0425197 2.15906 -0.0425197 2.1437 -0.0448819 2.12717 -0.0448819 2.11181 -0.046063 2.09646 -0.0484252 2.07992 -0.0484252 2.06457 -0.0496063 2.04921 -0.0507874 2.03386 -0.0507874 2.01851 -1.38898 0c-0.420473,0 -0.832678,0.0425197 -1.23071,0.125197 -0.396851,0.0814961 -0.778347,0.201969 -1.14331,0.356693l-0.00472441 0.0011811 -0.00472441 0.00236221c-0.36378,0.155906 -0.709843,0.344882 -1.03465,0.564567 -0.323622,0.218504 -0.624804,0.467717 -0.901182,0.742914l-0.00708662 0.00590552 -0.00590552 0.00708662c-0.275197,0.275197 -0.52441,0.576378 -0.742914,0.900001 -0.220866,0.325985 -0.411024,0.67441 -0.56693,1.04055 -0.155906,0.364961 -0.276378,0.748819 -0.357874,1.14685 -0.0826772,0.398032 -0.125197,0.809056 -0.125197,1.23071 0,0.420473 0.0425197,0.832678 0.125197,1.23071 0.0814961,0.398032 0.20315,0.78189 0.357874,1.14685 0.31063,0.732284 0.760631,1.39252 1.31575,1.94764l5.27363 5.27363 -0.266929 8.72599 -0.00590552 0.188977 -0.0153543 0.453544 -0.360236 10.9228 0 0.00236221 -0.011811 0.357874 -0.114567 3.36024 -0.125197 3.65079 -0.122835 3.58229 -0.0177165 0.506693 -0.103937 3.00945 -0.232677 6.83268 -0.0212599 0.636615 -0.298819 9.12638 -0.0236221 0.750001 -0.00590552 0.209055c-0.0944883,3.07677 -0.183071,6.06497 -0.261024,8.96103l-0.00354331 0.11811 -0.00354331 0.140551c-0.0755906,2.86299 -0.141732,5.64095 -0.196063,8.33268l-0.00590552 0.244488 -0.00354331 0.258662c-0.0519685,2.64921 -0.090945,5.21575 -0.116929,7.70197l-0.00354331 0.200788 -0.0011811 0.196063c-0.0248032,2.50276 -0.034252,4.92166 -0.0271654,7.2626l-0.0011811 0.165354 0.0011811 0.153543c0.00826772,2.34803 0.034252,4.61575 0.0779528,6.80552l0.0011811 0.141732 0.00472441 0.13937c0.046063,2.17677 0.108662,4.27559 0.194882,6.3l0.00472441 0.155906 0.00708662 0.129921c0.0874016,2.00669 0.196063,3.94016 0.327166,5.80276l0.00944883 0.172441 0.011811 0.135827c0.134646,1.86024 0.290551,3.64607 0.473622,5.36575l0.011811 0.131102 0.0129921 0.0992127c0.184252,1.71024 0.39567,3.35197 0.633071,4.92638l0.0188977 0.15 0.0188977 0.10748c0.240945,1.56378 0.510237,3.05906 0.806694,4.4941l0.0236221 0.132284 0.0212599 0.0885827c0.304725,1.44567 0.640158,2.8252 1.0063,4.14331l0.0188977 0.0779528 0.0153543 0.0472441c0.37441,1.33228 0.784253,2.60079 1.22835,3.8067l0.0153543 0.0484252 0.011811 0.0283465c0.448819,1.21063 0.934253,2.35748 1.45866,3.44646l0.0153543 0.0354331 0.0106299 0.0188977c0.52441,1.08543 1.08898,2.11063 1.69488,3.07914l0.0212599 0.0377953 0.0141732 0.0188977c0.608268,0.968505 1.25787,1.87795 1.95236,2.73307l0.0177165 0.0236221 0.0106299 0.011811c0.702756,0.862205 1.44921,1.6689 2.2441,2.42126l17.041 17.041 -17.5571 0c-0.383859,0 -0.759449,0.0389764 -1.12205,0.113386 -0.362599,0.0744095 -0.711024,0.185433 -1.04528,0.327166 -0.333071,0.141732 -0.651969,0.315355 -0.948426,0.516142 -0.297638,0.200788 -0.574016,0.429922 -0.826772,0.682678 -0.252756,0.252756 -0.48189,0.529134 -0.682678,0.826772 -0.200788,0.296457 -0.37441,0.615355 -0.516142,0.948426 -0.141732,0.333071 -0.251575,0.682678 -0.327166,1.04528 -0.0744095,0.361418 -0.113386,0.73819 -0.113386,1.12205l0 41.6705c0,0.383859 0.0389764,0.759449 0.113386,1.12205 0.0744095,0.362599 0.185433,0.711024 0.327166,1.04528 0.141732,0.333071 0.315355,0.650788 0.516142,0.948426 0.200788,0.296457 0.429922,0.574016 0.682678,0.826772l23.9906 23.9906 -0.683859 0.987402 -1.18347 1.74213 -1.16929 1.75276c-0.387402,0.585827 -0.773623,1.17284 -1.1563,1.76339l-1.14095 1.7752 -1.12795 1.78701 -1.1126 1.79646 -1.09843 1.80827 -0.90945 1.5248 -0.174803 0.294095 -0.0011811 0 -0.158268 0.270473 -0.910631 1.55906c-0.354331,0.611811 -0.707481,1.2248 -1.05591,1.84016l-1.03937 1.85079 -1.02638 1.8626 -1.01102 1.87205 -0.99567 1.8815 -0.980316 1.89331 -0.964961 1.90394 -0.950788 1.91339 -0.934253 1.92284 -0.920079 1.93465c-0.303544,0.646063 -0.605906,1.29449 -0.903544,1.9441 -0.298819,0.649607 -0.595276,1.30039 -0.88819,1.95354l-0.872835 1.96417 -0.8563 1.97362 -0.840946 1.98307 -30.0473 7.1126c-0.298819,0.0708662 -0.592914,0.154725 -0.87756,0.252756 -0.285827,0.0980316 -0.562205,0.210236 -0.827953,0.337796 -0.265748,0.126378 -0.518504,0.266929 -0.757087,0.422835 -0.238583,0.154725 -0.461811,0.324803 -0.666142,0.509056 -0.204331,0.184252 -0.388583,0.383859 -0.552756,0.598819 -0.162992,0.21378 -0.305906,0.444095 -0.421654,0.688583 -0.116929,0.244488 -0.206693,0.50315 -0.26811,0.779528 -0.0614174,0.275197 -0.0933072,0.56693 -0.0933072,0.874016 0,0.307087 0.0318898,0.607087 0.090945,0.897638 0.0602363,0.290551 0.147638,0.570473 0.261024,0.837402 0.113386,0.266929 0.252756,0.520867 0.413386,0.758268 0.16063,0.237402 0.34252,0.458268 0.54567,0.661418l65.8843 65.8843 -0.00472441 0.034252c-0.206693,1.62047 -0.392126,3.24803 -0.558662,4.88032 -0.165354,1.63228 -0.31063,3.27166 -0.435827,4.91693 -0.125197,1.6441 -0.230315,3.29646 -0.314173,4.95118 -0.0838583,1.65591 -0.146457,3.31654 -0.188977,4.98307 -0.0425197,1.66654 -0.0637796,3.3378 -0.0637796,5.01496 0,1.67717 0.0212599,3.34843 0.0637796,5.01496 0.0425197,1.66654 0.105118,3.32717 0.188977,4.98307 0.0838583,1.65591 0.188977,3.30591 0.314173,4.95118 0.125197,1.6441 0.269292,3.28347 0.435827,4.91693 0.165354,1.63228 0.35315,3.25985 0.558662,4.88032 0.205512,1.62047 0.432284,3.23386 0.677953,4.84252 0.245669,1.60748 0.511418,3.21024 0.796064,4.80473 0.284646,1.59449 0.588189,3.18307 0.911812,4.76339 0.323622,1.5815 0.667323,3.15473 1.02874,4.72205 0.361418,1.56732 0.741733,3.12756 1.14095,4.67953 0.399213,1.55197 0.818505,3.09567 1.25433,4.63229 0.437008,1.53662 0.891733,3.06733 1.36417,4.58741 0.473622,1.52126 0.96378,3.03425 1.47402,4.53898 0.509056,1.50473 1.03583,3.00118 1.5815,4.48937 0.544489,1.48819 1.10669,2.96811 1.68662,4.43859 0.579922,1.47047 1.17756,2.93268 1.79173,4.38544 0.614174,1.45276 1.24725,2.89607 1.89567,4.33111 0.648426,1.43386 1.31457,2.85945 1.99606,4.27559 0.682678,1.41496 1.38071,2.82166 2.09646,4.21772 0.715749,1.39606 1.44685,2.78386 2.19449,4.15985 0.747638,1.37599 1.51181,2.74252 2.29134,4.09961 0.779528,1.35591 1.57559,2.70355 2.38701,4.03819 0.811418,1.33465 1.63937,2.66103 2.4815,3.97441 0.842127,1.31339 1.69961,2.61614 2.57244,3.90827 0.872835,1.29213 1.76102,2.57362 2.66457,3.84331 0.902363,1.26969 1.82008,2.52756 2.75315,3.77481 0.93189,1.24725 1.88032,2.48386 2.84173,3.7063 0.961418,1.22362 1.93701,2.43543 2.92677,3.63425 0.989765,1.2 1.9937,2.38701 3.01181,3.56221 1.01811,1.1752 2.0504,2.33858 3.09567,3.48898 1.04528,1.15039 2.10354,2.2878 3.17599,3.41221 1.07244,1.12441 2.15788,2.23583 3.25748,3.33544l1135.88 1135.88 3.33544 3.25748 3.41221 3.17599 3.48898 3.09567 3.56221 3.01181 3.63425 2.92796 3.7063 2.84055 3.77481 2.75433 3.84331 2.66339 3.90945 2.57362 3.97323 2.48032 4.03819 2.38701 4.09961 2.29252 4.15985 2.19449 4.21772 2.09646 4.27559 1.99606 4.33111 1.89567 4.38662 1.79173 4.4374 1.68662 4.48937 1.5815 4.53898 1.47402 4.58741 1.36417 4.63347 1.25433 4.67835 1.14095 4.72205 1.02874 4.76339 0.911812 4.80473 0.796064 4.8437 0.677953 4.88032 0.558662 4.91693 0.435827 4.95118 0.314173 4.98307 0.188977 5.01496 0.0637796 5.01496 -0.0637796 4.98307 -0.188977 4.95118 -0.314173 4.91693 -0.435827 4.88032 -0.558662 4.8437 -0.677953 4.80473 -0.796064 4.76339 -0.911812 4.72205 -1.02874 4.67835 -1.14095 4.63347 -1.25433 4.58741 -1.36417 4.53898 -1.47402 4.48937 -1.5815 4.4374 -1.68662 4.38544 -1.79173 4.33229 -1.89567 4.27559 -1.99606 4.21772 -2.09646 4.15985 -2.19449 4.09961 -2.29252 4.03819 -2.38701 3.97323 -2.48032 3.90945 -2.57362 3.84331 -2.66339 3.77481 -2.75433 3.7063 -2.84055 3.63425 -2.92796 3.56221 -3.01181 3.48898 -3.09567 3.41221 -3.17599 3.33544 -3.25748 2.1 -2.13307 2.06811 -2.16378 2.03386 -2.19685 2.00079 -2.22756 1.96654 -2.25709 1.93228 -2.28898 1.89685 -2.31851 1.8626 -2.34803 1.82599 -2.37756 1.79055 -2.40591 1.75394 -2.43425 1.71732 -2.4626 1.67953 -2.48977 1.64291 -2.51693 1.60394 -2.54292 1.56614 -2.57008 1.52717 -2.59606 1.48701 -2.62205 1.44803 -2.64685 1.40788 -2.67047 1.36772 -2.69646 1.32638 -2.7189 1.28504 -2.7437 1.2437 -2.76614 1.20236 -2.78858 1.15866 -2.81221 1.11614 -2.83229 1.07244 -2.85473 1.02874 -2.87599 0.98504 -2.89607 0.941339 -2.91733 0.895276 -2.93622 100.142 -6.37678 0.872835 -0.0590552 0.868111 -0.0637796 0.863386 -0.0708662 0.857481 -0.0755906 0.852757 -0.0814961 0.846851 -0.0874016 0.843308 -0.0933072 0.836221 -0.0992127 0.832678 -0.103937 0.825591 -0.109843 0.822048 -0.114567 0.816142 -0.120473 0.811418 -0.126378 0.805512 -0.131102 0.800788 -0.137008 0.796064 -0.141732 19.3264 -0.263386 1.98898 1.98898 1.0441 0.827953 1.13858 0.701575 1.22362 0.563386 1.29685 0.415748 1.36063 0.257481 1.41378 0.0885827 1.77638 -0.13937 1.68898 -0.4063 1.57795 -0.649607 1.44685 -0.871654 1.29449 -1.07362 1.11969 -1.25315 0.923623 -1.41142 0.7063 -1.54843 0.949607 -0.0720473 0.94252 -0.0744095 0.934253 -0.0755906 0.925985 -0.0779528 0.917717 -0.0791339 0.908268 -0.0814961 0.89882 -0.0826772 0.88819 -0.0838583 0.879922 -0.0862205 0.868111 -0.0874016 0.857481 -0.0897638 0.846851 -0.090945 0.83504 -0.0921261 0.823229 -0.0944883 0.811418 -0.0956694 0.798426 -0.0968505 1.17284 0.664961 1.19173 0.638977 1.21181 0.615355 1.23071 0.589371 1.24961 0.563386 1.26732 0.537402 1.28622 0.510237 1.30394 0.483071 2.89843 0.954331 2.9126 0.797245 2.92087 0.643701 2.92441 0.49252 2.92323 0.341339 2.91851 0.194882 2.90788 0.0496063 2.89252 -0.0933072 2.87244 -0.233858 2.84764 -0.372048 2.81811 -0.509056 2.78386 -0.64252 2.74488 -0.773623 2.70118 -0.903544 2.65276 -1.0311 2.59961 -1.15512 2.54173 -1.27795 2.47914 -1.39843 2.41063 -1.51654 2.33858 -1.63228 2.26181 -1.74567 2.18032 -1.85788 2.09291 -1.96654 2.00197 -2.07284 1.9063 -2.17795 1.80473 -2.27953 1.69961 -2.3811 1.58858 -2.47795 1.47284 -2.57362 1.35473 -2.66693 1.22835 -2.75788 1.09961 -2.84646 0.0614174 -0.173622 0.0614174 -0.173622 0.0602363 -0.173622 0.0602363 -0.174803 0.0602363 -0.173622 0.0590552 -0.173622 0.0578741 -0.174803 0.0578741 -0.173622 4.71142 -3.35551 116.245 116.247 3.33544 3.25748 3.41221 3.17599 3.48898 3.09567 3.56221 3.01181 3.63425 2.92677 3.7063 2.84173 3.77481 2.75315 3.84331 2.66457 3.90945 2.57244 3.97323 2.4815 4.03819 2.38701 4.09961 2.29134 4.15985 2.19567 4.21772 2.09528 4.27559 1.99725 4.33229 1.89449 4.38544 1.79173 4.4374 1.6878 4.48937 1.5815 4.53898 1.47284 4.58741 1.36536 4.63347 1.25315 4.67835 1.14213 4.72205 1.02756 4.76339 0.912993 4.80473 0.796064 4.8437 0.677953 4.88032 0.558662 4.91693 0.435827 4.95118 0.314173 4.98307 0.188977 5.01496 0.0637796 5.01496 -0.0637796 4.98307 -0.188977 4.95118 -0.314173 4.91693 -0.435827 4.88032 -0.558662 4.8437 -0.677953 4.80473 -0.796064 4.76339 -0.912993 4.72205 -1.02756 4.67835 -1.14213 4.63347 -1.25315 4.58741 -1.36536 4.53898 -1.47284 4.48937 -1.5815 4.4374 -1.6878 4.38662 -1.79173 4.33111 -1.89449 4.27559 -1.99725 4.21772 -2.09528 4.15985 -2.19567 4.09961 -2.29134 4.03819 -2.38701 3.97323 -2.4815 3.90945 -2.57244 3.84331 -2.66457 3.77481 -2.75315 3.7063 -2.84173 3.63425 -2.92677 3.56221 -3.01181 3.48898 -3.09567 3.41221 -3.17599 3.33544 -3.25748 3.25748 -3.33544 3.17599 -3.41339 3.09567 -3.4878 3.01181 -3.56221 2.92796 -3.63425 2.84055 -3.7063 2.75433 -3.77481 2.66339 -3.84331 2.57362 -3.90945 2.48032 -3.97441 2.38701 -4.03701 2.29252 -4.09961 2.19449 -4.15985 2.09646 -4.2189 1.99606 -4.27559 1.89567 -4.33111 1.79173 -4.38544 1.68662 -4.43859 1.5815 -4.48937 1.47402 -4.5378 1.36417 -4.58741 1.25433 -4.63347 1.14095 -4.67835 1.02874 -4.72205 0.911812 -4.76457 0.796064 -4.80355 0.677953 -4.8437 0.558662 -4.88032 0.435827 -4.91693 0.314173 -4.95118 0.188977 -4.98307 0.0637796 -5.01496 -0.0637796 -5.01496 -0.188977 -4.98307 -0.314173 -4.95118 -0.435827 -4.91693 -0.558662 -4.88032 -0.677953 -4.8437 -0.796064 -4.80355 -0.911812 -4.76457 -1.02874 -4.72205 -1.14095 -4.67835 -1.25433 -4.63347 -1.36417 -4.58741 -1.47402 -4.5378 -1.5815 -4.48937 -1.68662 -4.43859 -1.79173 -4.38544 -1.89567 -4.33111 -1.99606 -4.27559 -2.09646 -4.2189 -2.19449 -4.15985 -2.29252 -4.09961 -2.38701 -4.03701 -2.48032 -3.97441 -2.57362 -3.90945 -2.66339 -3.84331 -2.75433 -3.77481 -2.84055 -3.7063 -2.92796 -3.63425 -3.01181 -3.56221 -3.09567 -3.4878 -3.17599 -3.41339 -3.25748 -3.33544 -190.366 -190.366 0.0129921 -1.20827 0.0259843 -2.03504 0.0307087 -2.00551 0.0354331 -1.96772 0.0401575 -1.91929 0.0425197 -1.8626 0.0472441 -1.79764 0.0507874 -1.72323 0.0543308 -1.64055 0.056693 -1.54725 0.0602363 -1.44685 0.0625985 -1.33701 0.0661418 -1.2189 0.0673229 -1.09016 0.111024 -2.18386 0.0354331 -2.12362 -0.0389764 -2.06339 -0.111024 -2.00433 -0.18189 -1.94528 -0.253937 -1.8874 -0.32126 -1.82953 -0.389764 -1.77165 -0.454725 -1.71496 -0.520867 -1.65945 -0.584646 -1.60276 -0.646063 -1.54843 -0.708662 -1.4941 -0.767717 -1.43858 -0.825591 -1.38662 -0.883465 -1.33347 -0.960237 -1.31102 -1.00394 -1.2437 -1.04646 -1.1752 -1.0878 -1.10906 -0.282284 -0.261024 1.37008 1.37008 -51.8457 -51.8457 -1.2378 -14.2051 -0.200788 -1.03937 -0.389764 -0.918898 -0.548032 -0.768898 -1135.88 -1135.88c-0.206693,-0.227953 -0.433465,-0.426378 -0.676772,-0.589371 -0.243307,-0.162992 -0.501969,-0.291733 -0.77126,-0.380315l-0.0011811 0 -0.0011811 0c-0.26811,-0.0874016 -0.546851,-0.137008 -0.831497,-0.141732l-0.00472441 -0.0011811 -0.00472441 0.0011811c-0.283465,-0.00354331 -0.574016,0.034252 -0.863386,0.122835l-0.00472441 0.0011811 -0.00472441 0.00236221c-0.290551,0.0885827 -0.583465,0.227953 -0.870473,0.420473l-17.5028 11.7272 -77.5382 -77.5382 -0.337796 -0.337796c-0.250394,-0.249213 -0.504331,-0.494882 -0.759449,-0.739371 -0.255118,-0.244488 -0.512599,-0.486615 -0.772442,-0.725197 -0.259843,-0.239764 -0.522048,-0.475985 -0.786615,-0.711024l-0.800788 -0.694489c-0.269292,-0.229134 -0.540945,-0.454725 -0.81378,-0.676772 -0.274016,-0.223229 -0.550394,-0.442914 -0.829134,-0.659056 -0.27874,-0.216142 -0.559843,-0.429922 -0.843308,-0.640158 -0.283465,-0.210236 -0.569292,-0.415748 -0.857481,-0.618898 -0.288189,-0.20315 -0.578741,-0.401575 -0.871654,-0.597638 -0.292914,-0.194882 -0.588189,-0.387402 -0.887009,-0.575197 -0.297638,-0.187795 -0.6,-0.370866 -0.902363,-0.550394 -0.303544,-0.179528 -0.608268,-0.355512 -0.916536,-0.526772 -0.308268,-0.17126 -0.620079,-0.337796 -0.933072,-0.500788 -0.312992,-0.161811 -0.629528,-0.320079 -0.947245,-0.472441 -0.317717,-0.152362 -0.638977,-0.302362 -0.962599,-0.446457 -0.323622,-0.144095 -0.649607,-0.281103 -0.979135,-0.415748 -0.457087,-0.185433 -0.915355,-0.360236 -1.37599,-0.523229 -0.46063,-0.162992 -0.923623,-0.315355 -1.3878,-0.455906 -0.464174,-0.141732 -0.929528,-0.271654 -1.39725,-0.390945 -0.467717,-0.119291 -0.936615,-0.229134 -1.40669,-0.328347 -0.470079,-0.0992127 -0.941339,-0.188977 -1.41378,-0.26811 -0.472441,-0.0791339 -0.946064,-0.148819 -1.42087,-0.207874 -0.474804,-0.0602363 -0.951969,-0.109843 -1.42795,-0.151181 -0.477166,-0.0413386 -0.95315,-0.0732284 -1.4315,-0.0968505 -0.478347,-0.0236221 -0.956694,-0.0366142 -1.43622,-0.0425197 -0.479528,-0.00590552 -0.960237,-0.00472441 -1.43976,0.00708662 -0.479528,0.0106299 -0.960237,0.0295276 -1.44095,0.056693 -0.480709,0.0271654 -0.961418,0.0625985 -1.44213,0.105118 -0.480709,0.0425197 -0.961418,0.0921261 -1.44213,0.148819 -0.480709,0.056693 -0.961418,0.121654 -1.44095,0.19252 -0.479528,0.0708662 -0.960237,0.147638 -1.43976,0.232677 -0.479528,0.0850394 -0.957875,0.175984 -1.43622,0.272835 -0.478347,0.0968505 -0.955513,0.200788 -1.43268,0.309449 -0.477166,0.109843 -0.95315,0.22441 -1.42795,0.344882 -0.474804,0.120473 -0.948426,0.246851 -1.42087,0.379134 -0.472441,0.131102 -0.943702,0.266929 -1.41496,0.408662 -0.470079,0.141732 -0.938977,0.288189 -1.40669,0.43937 -0.467717,0.151181 -0.934253,0.307087 -1.39843,0.466536 -0.464174,0.159449 -0.927166,0.323622 -1.3878,0.491339 -0.46063,0.167717 -0.920079,0.340158 -1.37717,0.514961 -0.457087,0.174803 -0.911812,0.354331 -1.36536,0.536221 -0.452363,0.18189 -0.903544,0.366142 -1.35236,0.555119 -0.448819,0.187795 -0.895276,0.379134 -1.33937,0.572835z"/>
   </g>
  </g>
  <path class="fil2" d="M1024 -0.0011811c565.541,0 1024,458.461 1024,1024 0,565.541 -458.461,1024 -1024,1024 -565.541,0 -1024,-458.461 -1024,-1024 0,-565.541 458.461,-1024 1024,-1024z"/>
  <g id="_449593488">
   <path id="_459249080" class="fil3" d="M1206.82 791.382l78.743 -52.7611c2.31142,-1.54961 4.9193,0.386221 5.17323,3.29173l3.5374 40.604c0.253937,2.9067 -1.57323,6.17363 -4.1315,7.26615l-15.7075 6.70867 3.0567 30.9768c0.157087,1.59331 -0.861024,3.38504 -2.26536,3.98386l-44.8075 19.1386c-1.40433,0.6 -2.6811,-0.211417 -2.83819,-1.80473l-3.0567 -30.9768 -16.1008 6.87638c-2.55709,1.09134 -5.10237,-0.375591 -5.17323,-3.29292l-0.561024 -22.7433c-0.0720473,-2.91851 1.82008,-5.71772 4.1315,-7.26733z"/>
   <path id="_459245408" class="fil4" d="M523.891 990.289c9.92717,7.97717 11.7673,37.565 16.0914,49.2544l-22.7882 2.97638 -3.53504 -20.1957 10.2319 -32.0351z"/>
   <path id="_459260360" class="fil5" d="M487.531 977.907l34.6016 0c3.06969,0 6.57993,2.67874 5.58071,5.58189l-14.3457 41.6705c-0.999213,2.90315 -2.51221,5.58189 -5.58071,5.58189l-20.2559 0c-3.06969,0 -5.58189,-2.51103 -5.58189,-5.58189l0 -41.6705c0,-3.07087 2.51103,-5.58189 5.58189,-5.58189z"/>
   <path id="_459259232" class="fil6" d="M713.437 1137.56l282.456 3.27756c97.3383,1.12913 91.6831,106.388 -1.48819,112.318l-280.968 17.8902c-38.6244,2.45788 -70.389,-30.0343 -70.389,-66.743l0 0c0,-36.7099 31.6784,-67.1918 70.389,-66.743z"/>
   <ellipse id="_459259184" class="fil7" cx="707.935" cy="1204.24" rx="65.6735" ry="65.6735"/>
   <polygon id="_459262112" class="fil8" points="711.507,1052.2 711.507,1358.59 704.363,1358.59 704.363,1052.2 "/>
   <polygon id="_459276056" class="fil8" points="684.849,1053.91 738.053,1355.65 731.021,1356.88 677.817,1055.14 "/>
   <polygon id="_459265448" class="fil8" points="658.888,1060.23 763.68,1348.14 756.982,1350.57 652.19,1062.66 "/>
   <polygon id="_459265256" class="fil8" points="634.42,1070.94 787.616,1336.28 781.449,1339.86 628.252,1074.51 "/>
   <polygon id="_459253904" class="fil8" points="612.198,1085.75 809.142,1320.46 803.673,1325.04 606.728,1090.33 "/>
   <polygon id="_459248624" class="fil8" points="592.868,1104.19 827.579,1301.13 823.002,1306.6 588.292,1109.66 "/>
   <polygon id="_459272336" class="fil8" points="577.035,1125.71 842.378,1278.91 838.835,1285.08 573.491,1131.88 "/>
   <polygon id="_459248696" class="fil8" points="565.191,1149.65 853.105,1254.44 850.677,1261.14 562.763,1156.35 "/>
   <polygon id="_459259808" class="fil8" points="557.679,1175.28 859.417,1228.48 858.188,1235.51 556.451,1182.31 "/>
   <polygon id="_459272672" class="fil8" points="554.737,1201.82 861.129,1201.82 861.129,1208.97 554.737,1208.97 "/>
   <polygon id="_459271112" class="fil8" points="556.451,1228.48 858.187,1175.28 859.416,1182.31 557.679,1235.51 "/>
   <polygon id="_459276368" class="fil8" points="562.761,1254.44 850.675,1149.65 853.104,1156.35 565.19,1261.14 "/>
   <polygon id="_459265016" class="fil8" points="573.489,1278.91 838.833,1125.71 842.376,1131.88 577.033,1285.08 "/>
   <polygon id="_459255872" class="fil8" points="588.29,1301.13 822.999,1104.19 827.575,1109.66 592.865,1306.6 "/>
   <polygon id="_459264248" class="fil8" points="606.724,1320.46 803.67,1085.75 809.138,1090.33 612.194,1325.04 "/>
   <polygon id="_459275840" class="fil8" points="628.249,1336.28 781.446,1070.93 787.613,1074.51 634.417,1339.85 "/>
   <polygon id="_459257888" class="fil8" points="652.186,1348.13 756.979,1060.22 763.675,1062.65 658.883,1350.56 "/>
   <polygon id="_459259112" class="fil8" points="677.814,1355.65 731.018,1053.91 738.049,1055.14 684.845,1356.88 "/>
   <path id="_459247280" class="fil9" d="M707.934 1009.94c53.654,0 102.232,21.7488 137.394,56.9126 35.1638,35.1626 56.9126,83.7402 56.9126,137.394 0,53.6528 -21.7488,102.23 -56.9126,137.393 -35.1626,35.1638 -83.7402,56.9126 -137.394,56.9126 -53.654,0 -102.232,-21.7488 -137.394,-56.9126 -35.1626,-35.1626 -56.9115,-83.7402 -56.9115,-137.393 0,-53.654 21.7488,-102.232 56.9115,-137.394 35.1626,-35.1638 83.7402,-56.9126 137.394,-56.9126zm105.07 89.2371c-26.8878,-26.8866 -64.0359,-43.5166 -105.07,-43.5166 -41.0351,0 -78.1819,16.6299 -105.069,43.5166 -26.8878,26.8878 -43.5177,64.0347 -43.5177,105.07 0,41.0339 16.6299,78.1808 43.5177,105.069 26.8866,26.8866 64.0335,43.5166 105.069,43.5166 41.0339,0 78.1819,-16.6299 105.07,-43.5166 26.8866,-26.8878 43.5166,-64.0347 43.5166,-105.069 0,-41.0351 -16.6299,-78.1819 -43.5166,-105.07z"/>
   <path id="_459273848" class="fil10" d="M707.934 1022.75c100.236,0 181.491,81.2564 181.491,181.492 0,100.234 -81.2552,181.491 -181.491,181.491 -100.236,0 -181.491,-81.2564 -181.491,-181.491 0,-100.236 81.2552,-181.492 181.491,-181.492zm105.07 76.4221c-26.8878,-26.8866 -64.0359,-43.5166 -105.07,-43.5166 -41.0351,0 -78.1819,16.6299 -105.069,43.5166 -26.8878,26.8878 -43.5177,64.0347 -43.5177,105.07 0,41.0339 16.6299,78.1808 43.5177,105.069 26.8866,26.8866 64.0335,43.5166 105.069,43.5166 41.0339,0 78.1819,-16.6299 105.07,-43.5166 26.8866,-26.8878 43.5166,-64.0347 43.5166,-105.069 0,-41.0351 -16.6299,-78.1819 -43.5166,-105.07z"/>
   <path id="_459263864" class="fil8" d="M707.934 1046.47c87.1383,0 157.776,70.6382 157.776,157.776 0,87.1371 -70.6382,157.775 -157.776,157.775 -87.1371,0 -157.775,-70.6382 -157.775,-157.775 0,-87.1383 70.6382,-157.776 157.775,-157.776zm103.965 53.8111c-26.6044,-26.6055 -63.3615,-43.0607 -103.965,-43.0607 -40.604,0 -77.3611,16.4563 -103.965,43.0607 -26.6044,26.6044 -43.0595,63.3615 -43.0595,103.965 0,40.6028 16.4551,77.3599 43.0595,103.964 26.6044,26.6044 63.3615,43.0607 103.965,43.0607 40.604,0 77.3611,-16.4551 103.965,-43.0607 26.6055,-26.6044 43.0607,-63.3615 43.0607,-103.964 0,-40.604 -16.4551,-77.3611 -43.0607,-103.965z"/>
   <path id="_459272216" class="fil11" d="M708.21 1197.66l0 0c3.4252,0 6.22087,2.80276 6.22678,6.2256l0.0661418 45.2185c0.00472441,3.42284 -1.08307,6.2256 -4.50591,6.2256l-0.0011811 0c-3.42166,0 -3.72284,-3.48425 -4.02756,-6.89528l-3.98504 -44.5489c-0.303544,-3.40985 2.80158,-6.2256 6.22678,-6.2256z"/>
   <path id="_459250232" class="fil12" d="M1269.73 943.898c-2.08819,1.13622 -4.75985,2.2311 -8.31969,3.6874 -4.363,1.78583 -10.7055,4.38189 -18.104,8.28072 -0.543308,-1.54252 -0.967324,-1.58858 -1.35354,-1.89095 -52.9418,-41.4473 -147.852,13.9217 -173.209,96.3379 -25.3583,82.4162 -14.3433,116.49 -19.4799,156.999 -20.7992,5.51339 -44.9941,0.317717 -62.4249,-2.40118 -13.9913,-2.18268 -26.9516,-5.50276 -46.7044,-11.6528l0 -0.0188977 0 -0.022441 0 -0.022441 0 -0.022441 0 -0.0236221 0 -0.022441 0.0011811 -0.022441 0 -0.022441 0 -0.022441 0 -0.022441 0 -0.0236221 0.0011811 -0.022441 0 -0.0212599 0 -0.0236221 0 -0.022441 0 -0.0673229 0 -0.022441 0 -0.0236221 0.00590552 -0.768898 0 -0.0236221 0 -0.0212599 0 -0.022441 0 -0.0236221 0 -0.022441c0,-3.38622 -0.0814961,-6.76064 -0.237402,-10.1244l-0.00708662 -0.170079c-0.0354331,-0.777166 -0.0779528,-1.55197 -0.122835,-2.32677l-0.0165354 -0.314173c-0.0437008,-0.728741 -0.0921261,-1.4563 -0.141732,-2.18386l-0.0318898 -0.479528c-0.0519685,-0.725197 -0.108662,-1.44803 -0.167717,-2.17087l-0.0330709 -0.412205c-0.0614174,-0.726379 -0.125197,-1.45039 -0.19252,-2.17441l-0.0425197 -0.454725c-0.0673229,-0.690945 -0.138189,-1.38189 -0.209055,-2.07166l-0.0590552 -0.559843c-0.0755906,-0.698032 -0.153543,-1.39488 -0.236221,-2.09173l-0.0555119 -0.478347c-0.0862205,-0.708662 -0.174803,-1.41732 -0.265748,-2.12599l-0.0602363 -0.461811c-0.0885827,-0.670867 -0.18189,-1.34173 -0.276378,-2.01142 -14.9646,-105.298 -105.16,-186.554 -215.012,-186.554 -43.487,0 -85.3701,12.9 -120.845,36.7016l-6.47008 -0.623623c-31.8803,-3.07441 -90.7335,-66.2646 -97.852,-100.013l-0.537402 -4.64292 13.1126 -152.661 0.0897638 -1.07126c0.00708662,-0.146457 -6.38741,12.8988 28.6571,-1.50827 13.4398,-5.52874 21.6685,-34.454 65.7154,-33.0024 34.1847,1.12677 71.5241,2.35748 98.1851,0.968505 25.3418,-1.31693 24.2221,-14.0516 36.6343,-1.59449 11.7343,11.778 17.6091,5.17914 20.3079,26.5512 4.35945,34.5307 -25.5945,57.241 -24.1217,85.5568 0.470079,9.03308 58.5886,45.1689 59.0953,52.5248 0.981497,14.2217 11.9599,-10.9453 21.2941,-5.4378 7.12205,4.20118 13.2898,6.11811 13.3299,6.13111 0.288189,0.0921261 100.677,32.4307 122.389,24.8811 2.96103,-1.02874 7.38898,-12.3484 12.241,-24.7583 10.4764,-26.791 26.3173,-37.2886 61.5319,-47.791 24.4099,-7.28032 49.4304,-7.49882 72.515,-7.08308 22.5059,0.403937 54.5752,24.2693 77.1839,28.9217 33.3142,0.864568 52.6382,-21.111 52.6595,-21.2114l3.04134 -3.6626 38.5961 111.962z"/>
   <path id="_459245264" class="fil13" d="M1077.39 1201.06c-3.30355,26.0634 -4.88741,43.5177 -4.88741,43.5177l0.581103 0.785434c-18.2965,4.58859 -74.4686,6.24804 -93.9745,3.44292 -29.7284,-4.27087 -57.2717,-12.9839 -84.6993,-21.6603 -53.0032,-16.7669 -105.534,-33.3768 -162.68,-9.67324 -8.15197,3.3815 -14.0988,9.09213 -22.9547,9.09213 -12.7134,0 -23.0209,-10.3075 -23.0209,-23.0209 0,-6.71339 2.87599,-12.7559 7.45985,-16.963 2.53465,-2.32323 5.72953,-4.28268 8.80276,-5.79804 77.0753,-38.0398 141.305,-17.7236 206.145,2.7874 10.6476,3.36851 21.3142,6.74174 31.9701,9.80316l0 -0.022441 0 -0.0236221 0.0011811 -0.0212599 0 -0.0236221 0 -0.022441 0 -0.00354331c19.7528,6.15 32.713,9.47009 46.7044,11.6528 17.4307,2.7189 69.7536,1.66417 90.5528,-3.84922z"/>
   <circle id="_459250016" class="fil14" cx="707.935" cy="1204.24" r="10.7449"/>
   <circle id="_459248192" class="fil4" cx="707.935" cy="1204.24" r="5.13158"/>
   <path id="_459257696" class="fil12" d="M1235.33 843.397c3.20788,-4.56496 7.39489,-9.19725 12.2374,-13.6713 12.6177,-11.6551 29.7,-22.2402 45.5717,-27.7784 9.51261,-3.31772 18.9225,-5.01969 27.287,-4.4067 10.8933,0.799607 20.1354,5.1567 26.4071,14.152 4.86142,6.97087 7.33701,16.1764 6.54213,27.9874 -0.367323,5.45906 -0.64252,16.7492 -0.690945,27.7866 -0.0401575,9.45709 0.0826772,19.011 0.452363,24.9331l0 0.0625985c0.277559,4.43386 -0.38504,8.64213 -1.84606,12.5374 -2.34331,6.24331 -6.61064,11.2677 -12.2504,14.7992 -4.94646,3.09685 -10.8662,4.96654 -17.2784,5.36811 -6.16654,0.38504 -12.9709,-0.595276 -19.8886,-3.19134l-37.7634 -5.79922 -28.7799 -72.7796z"/>
   <path id="_459259976" class="fil15" d="M1326.25 798.349l0.563386 0.120473c8.11772,1.82008 15.0154,6.04489 20.0209,13.2236 4.86142,6.97087 7.33701,16.1764 6.54213,27.9874 -0.367323,5.45906 -0.64252,16.7492 -0.690945,27.7866 -0.0401575,9.45709 0.0826772,19.011 0.452363,24.9331l0 0.0625985c0.277559,4.43386 -0.38504,8.64213 -1.84606,12.5374 -2.34331,6.24331 -6.61064,11.2677 -12.2504,14.7992 -3.66496,2.2937 -7.86142,3.91418 -12.398,4.76339l-0.0590552 0.011811 -0.334252 -126.226z"/>
   <ellipse id="_459250352" class="fil7" cx="1405.69" cy="1190.24" rx="65.6735" ry="65.6735"/>
   <polygon id="_459249848" class="fil8" points="1409.27,1038.2 1409.27,1344.59 1402.12,1344.59 1402.12,1038.2 "/>
   <polygon id="_459245000" class="fil8" points="1382.61,1039.91 1435.81,1341.65 1428.78,1342.88 1375.58,1041.14 "/>
   <polygon id="_459268112" class="fil8" points="1356.65,1046.22 1461.44,1334.14 1454.74,1336.57 1349.95,1048.65 "/>
   <polygon id="_459250136" class="fil8" points="1332.18,1056.94 1485.38,1322.28 1479.21,1325.85 1326.01,1060.51 "/>
   <polygon id="_459269672" class="fil8" points="1309.96,1071.75 1506.9,1306.46 1501.43,1311.04 1304.49,1076.33 "/>
   <polygon id="_459255632" class="fil8" points="1290.63,1090.19 1525.34,1287.13 1520.76,1292.6 1286.05,1095.66 "/>
   <polygon id="_459263120" class="fil8" points="1274.79,1111.71 1540.14,1264.91 1536.59,1271.07 1271.25,1117.88 "/>
   <polygon id="_459253472" class="fil8" points="1262.95,1135.65 1550.86,1240.44 1548.44,1247.14 1260.52,1142.35 "/>
   <polygon id="_459268664" class="fil8" points="1255.44,1161.27 1557.18,1214.48 1555.95,1221.51 1254.21,1168.31 "/>
   <polygon id="_459268136" class="fil8" points="1252.5,1187.82 1558.89,1187.82 1558.89,1194.96 1252.5,1194.96 "/>
   <polygon id="_459255032" class="fil8" points="1254.21,1214.48 1555.95,1161.27 1557.17,1168.3 1255.44,1221.51 "/>
   <polygon id="_459250736" class="fil8" points="1260.52,1240.44 1548.43,1135.65 1550.86,1142.34 1262.95,1247.14 "/>
   <polygon id="_459259088" class="fil8" points="1271.25,1264.9 1536.59,1111.71 1540.14,1117.88 1274.79,1271.07 "/>
   <polygon id="_459258896" class="fil8" points="1286.05,1287.13 1520.76,1090.18 1525.33,1095.65 1290.62,1292.6 "/>
   <polygon id="_459259520" class="fil8" points="1304.48,1306.46 1501.43,1071.75 1506.9,1076.32 1309.95,1311.03 "/>
   <polygon id="_459276776" class="fil8" points="1326.01,1322.28 1479.21,1056.93 1485.37,1060.5 1332.18,1325.85 "/>
   <polygon id="_459268256" class="fil8" points="1349.95,1334.13 1454.74,1046.22 1461.44,1048.65 1356.64,1336.56 "/>
   <polygon id="_459271136" class="fil8" points="1375.57,1341.64 1428.78,1039.91 1435.81,1041.14 1382.6,1342.87 "/>
   <path id="_459267944" class="fil9" d="M1405.69 995.935c53.654,0 102.232,21.7488 137.394,56.9115 35.1638,35.1638 56.9126,83.7402 56.9126,137.394 0,53.654 -21.7488,102.23 -56.9126,137.394 -35.1626,35.1626 -83.7402,56.9126 -137.394,56.9126 -53.654,0 -102.232,-21.75 -137.394,-56.9126 -35.1626,-35.1638 -56.9115,-83.7402 -56.9115,-137.394 0,-53.654 21.7488,-102.23 56.9115,-137.394 35.1626,-35.1626 83.7402,-56.9115 137.394,-56.9115zm105.07 89.2371c-26.8878,-26.8878 -64.0347,-43.5177 -105.07,-43.5177 -41.0339,0 -78.1819,16.6311 -105.069,43.5177 -26.8866,26.8866 -43.5166,64.0347 -43.5166,105.069 0,41.0339 16.6299,78.1819 43.5166,105.069 26.8866,26.8866 64.0347,43.5177 105.069,43.5177 41.0351,0 78.1819,-16.6299 105.07,-43.5177 26.8866,-26.8866 43.5166,-64.0347 43.5166,-105.069 0,-41.0339 -16.6299,-78.1819 -43.5166,-105.069z"/>
   <path id="_459265040" class="fil10" d="M1405.69 1008.75c100.236,0 181.492,81.2552 181.492,181.491 0,100.236 -81.2564,181.491 -181.492,181.491 -100.234,0 -181.491,-81.2552 -181.491,-181.491 0,-100.236 81.2564,-181.491 181.491,-181.491zm105.07 76.4221c-26.8878,-26.8878 -64.0347,-43.5177 -105.07,-43.5177 -41.0339,0 -78.1819,16.6311 -105.069,43.5177 -26.8866,26.8866 -43.5166,64.0347 -43.5166,105.069 0,41.0339 16.6299,78.1819 43.5166,105.069 26.8866,26.8866 64.0347,43.5177 105.069,43.5177 41.0351,0 78.1819,-16.6299 105.07,-43.5177 26.8866,-26.8866 43.5166,-64.0347 43.5166,-105.069 0,-41.0339 -16.6299,-78.1819 -43.5166,-105.069z"/>
   <path id="_459247160" class="fil8" d="M1405.69 1032.46c87.1383,0 157.776,70.6382 157.776,157.776 0,87.1383 -70.6382,157.776 -157.776,157.776 -87.1371,0 -157.775,-70.6382 -157.775,-157.776 0,-87.1383 70.6382,-157.776 157.775,-157.776zm103.965 53.8111c-26.6044,-26.6044 -63.3615,-43.0595 -103.965,-43.0595 -40.604,0 -77.3611,16.4551 -103.965,43.0595 -26.6044,26.6044 -43.0595,63.3626 -43.0595,103.965 0,40.6028 16.4551,77.3611 43.0595,103.965 26.6044,26.6044 63.3615,43.0595 103.965,43.0595 40.604,0 77.3611,-16.4551 103.965,-43.0595 26.6055,-26.6044 43.0607,-63.3626 43.0607,-103.965 0,-40.6028 -16.4551,-77.3611 -43.0607,-103.965z"/>
   <circle id="_459268400" class="fil14" cx="1405.69" cy="1190.24" r="10.7449"/>
   <circle id="_459276224" class="fil4" cx="1405.69" cy="1190.24" r="5.13158"/>
   <path id="_459273680" class="fil15" d="M477.897 1110.7c17.7366,-49.1882 49.8284,-90.2528 90.541,-119.119 41.3705,-29.3339 91.5733,-46.1256 144.612,-46.1256 65.889,0 126.155,25.6217 171.026,67.7032 44.8217,42.0366 74.2264,100.531 78.4512,166.327l-35.5784 2.23229c-3.62244,-56.3965 -28.8414,-106.549 -67.2886,-142.606 -38.3988,-36.0118 -90.0556,-57.9378 -146.61,-57.9378 -45.5705,0 -88.5993,14.3551 -123.963,39.4288 -31.5685,22.3831 -57.0886,53.2748 -72.9272,90.0981l-38.263 0z"/>
   <path id="_459267512" class="fil2 str0" d="M1484.37 996.447c-23.1449,-8.28308 -47.5429,-12.5173 -72.1253,-12.5173 -87.3544,0 -165.944,53.0835 -198.562,134.12"/>
   <path id="_459265328" class="fil16" d="M914.31 975.511l173.3 -11.2394c34.8744,-2.26181 37.3654,31.7433 22.7055,47.6504 -47.6764,51.73 -65.2075,57.1182 -97.5249,128.725 -5.83347,12.9236 -16.1728,19.5083 -35.4437,20.9516l-0.876379 0.0661418c-26.9835,2.02087 -39.5717,-12.6591 -46.3276,-29.3551l-44.1 -108.982c-7.17048,-17.7177 -20.3823,-44.6611 28.2673,-47.817z"/>
   <path id="_459257288" class="fil17" d="M452.464 1105.96l31.4398 -7.44213 36.8351 -0.372048c2.45669,-0.0248032 -4.65237,9.82442 -4.65237,12.2776l0 0.0011811c0,2.45669 -2.00788,4.46457 -4.46339,4.46457l-59.1591 0c-2.45669,0 -4.46457,-2.00788 -4.46457,-4.46457l0 -0.0011811c0,-2.45551 2.0752,-3.89882 4.46457,-4.46339z"/>
   <path id="_459249608" class="fil7" d="M1390.12 1193.5l-1.9689 2.21811c-1.37244,1.54488 -2.11417,3.50197 -2.11417,5.5689 0,4.63937 3.75709,8.39646 8.39646,8.39646 4.63937,0 8.39646,-3.75827 8.39646,-8.39646 0,-4.63937 -3.75709,-8.39646 -8.39646,-8.39646 -0.474804,0 -0.948426,0.0401575 -1.41614,0.119291l-2.89725 0.490158z"/>
   <path id="_459264344" class="fil18" d="M1224.72 855.99l0.0637796 0.186614c2.36575,6.90591 4.79646,13.7693 7.27087,20.5854 14.2288,39.1914 30.45,77.7886 47.8867,115.656 17.7012,38.4425 36.7784,76.3607 57.2174,113.424 14.7721,26.7851 30.3496,53.4142 47.0693,79.1268l9.03662 -5.23937c-2.38465,2.7874 -3.79843,6.42402 -3.72638,10.3807 0.155906,8.58072 7.23898,15.411 15.8209,15.2539 8.57953,-0.155906 15.4087,-7.23898 15.2528,-15.8209 -0.157087,-8.57953 -7.24016,-15.4087 -15.8197,-15.2528 -0.889371,0.0165354 -1.75866,0.108662 -2.60433,0.266929l9.20906 -5.33859c-16.5225,-25.1729 -32.0103,-51.1134 -46.7008,-77.3528 -19.161,-34.2272 -37.0618,-69.2327 -53.6646,-104.771 -17.5193,-37.5 -33.7016,-75.7831 -47.8217,-114.697 -3.27992,-9.0378 -6.4689,-18.1488 -9.52914,-27.3225l-0.116929 -0.351969c-10.1776,3.96851 -20.1543,7.86733 -28.8437,11.2665z"/>
   <path id="_449602368" class="fil7" d="M1060.55 724.894l12.0567 11.9516c8.86772,-8.71654 17.9067,-17.263 27.2492,-25.4693 9.01536,-7.9193 18.3508,-15.6354 28.3878,-22.2355 12.926,-8.49922 30.8551,-17.4756 45.678,-8.01379 1.54961,0.988583 2.98819,2.14488 4.29213,3.44055 8.9882,8.91615 14.1307,23.8795 17.6563,35.8477 4.8,16.2969 8.21694,32.961 11.785,49.5579 6.06969,28.2319 14.3587,56.054 23.7272,83.4142l15.5221 -6.0626c-8.87127,-26.5736 -16.6417,-53.5524 -22.5248,-80.9138 -4.13859,-19.2473 -8.07638,-38.7366 -14.3067,-57.4382 -4.23544,-12.7099 -10.2413,-26.9339 -19.8839,-36.5008 -4.01221,-3.97914 -8.60079,-7.41024 -13.8626,-9.5504 -14.6197,-5.94331 -31.2756,-0.129921 -44.5548,6.62599 -12.7736,6.49961 -24.7158,15.0213 -35.9032,23.9386 -12.3201,9.82087 -24.0166,20.4272 -35.3185,31.4079z"/>
   <path id="_449589792" class="fil17" d="M1050.98 730.165l41.478 -35.765 13.1374 15.2351 -41.4792 35.765c0.458268,1.97008 -0.164173,4.12559 -1.79291,5.53111l0 0c-2.3374,2.01496 -5.89489,1.75158 -7.90985,-0.584646l-9.75355 -11.3102c-2.01496,-2.3374 -1.75158,-5.89489 0.585827,-7.90985l0 0c1.62874,-1.40551 3.85394,-1.70315 5.73426,-0.961418z"/>
   <rect id="_449591376" class="fil3" transform="matrix(0.0931191 -0.080293 0.886752 1.0284 1084.68 690.921)" width="62.8914" height="26.1721" rx="3.86693" ry="3.86693"/>
   <path id="_449614080" class="fil19" d="M1261.68 846.389c1.01929,2.72244 1.87441,5.5193 2.83347,8.29134 14.8347,42.8374 59.7768,143.801 80.3658,187.695l-38.53 23.1921c-21.0567,-44.6989 -66.7713,-146.719 -82.4292,-190.329 -8.8193,-24.5622 -5.41063,-13.7551 28.1953,-33.9815 3.90709,-2.47441 7.01103,-1.69252 9.56457,5.13189z"/>
   <circle id="_449603280" class="fil4" cx="1405.31" cy="1189.88" r="6.10003"/>
   <path id="_449613480" class="fil20" d="M945.248 894.402c3.86339,-0.317717 9.72402,3.36142 8.17205,6.9567 -8.45552,19.578 -14.9445,39.0957 -16.5732,57.6792 -0.34252,3.90827 -3.17953,7.13623 -7.05591,7.14331l-125.245 0.232677c-3.8752,0.00590552 -6.93898,-3.21733 -7.05591,-7.14331l-2.56181 -84.9662c-0.324803,-10.7835 7.67127,-6.99331 17.2784,-2.07638 46.8709,23.9858 80.0989,26.5229 133.042,22.174z"/>
   <path id="_449590008" class="fil21" d="M791.73 809.75l5.01969 111.819c0.832678,18.5634 -11.9516,33.7264 -28.0288,33.7666 -316.335,0.800788 -296.679,81.9201 -290.434,-145.585l313.444 0z"/>
   <path id="_449600304" class="fil22" d="M479.409 731.266l0.0897638 -1.2378c0.00708662,-0.170079 1.92284,-59.2678 36.9674,-75.9095 13.4398,-6.38504 52.6394,-4.89331 96.6875,-3.21614 34.1835,1.30158 71.5229,2.72362 98.1851,1.11969 25.3418,-1.52126 42.3508,4.71142 54.763,19.0996 11.7354,13.6039 16.8543,32.1579 19.5532,56.843 2.5937,23.7355 4.38071,49.6748 5.71182,73.6831l0.361418 8.03977 0.00236221 0.0625985 -313.444 0 0.0236221 -0.918898c0.616536,-22.6878 1.09843,-48.3863 1.09843,-77.5654z"/>
   <rect id="_449620344" class="fil23" x="470.929" y="803.835" width="328.159" height="12.2482" rx="6.12402" ry="6.12402"/>
   <path id="_449591832" class="fil24" d="M1076.82 998.528c-15.8102,10.5036 -28.1587,19.2898 -38.8146,21.5457 -31.1788,6.60237 -46.8567,-13.4185 -112.37,50.7248 25.4091,-29.4733 57.5682,-63.0426 88.5213,-64.5898 20.7626,-1.03701 32.3173,5.66693 62.6634,-7.68071z"/>
   <path id="_449614680" class="fil24" d="M919.684 1095.68c22.4091,-21.8917 50.3233,-46.8248 73.4989,-47.9741 4.56733,-0.226772 14.6469,-0.679134 24.1701,-0.754725 -36.189,7.65237 -58.8709,15.9673 -97.669,48.7288z"/>
   <rect id="_449595816" class="fil14" x="1096.21" y="796.751" width="19.0658" height="7.17701" rx="1.56378" ry="1.56378"/>
   <rect id="_449619432" class="fil7" x="1087.56" y="798.673" width="36.3635" height="13.6884" rx="2.98347" ry="2.98347"/>
   <path id="_449610600" class="fil19" d="M959.297 887.175c11.3516,-28.2803 24.9047,-59.3032 63.0626,-70.3902 26.4496,-7.68544 51.6071,-10.4539 76.6217,-10.0158 24.3874,0.426378 48.1347,3.91063 72.6319,8.82048 0.616536,0.0165354 1.22717,0.0212599 1.83071,0.0212599 21.3166,4.29095 47.4343,8.09883 45.391,22.376 -10.2059,71.3233 -74.2359,91.3666 -127.5,91.9111 -45.2185,0.461811 -75.2906,5.25827 -121.153,31.9961 -17.6091,10.2661 -33.9225,11.6244 -32.961,0.892914 2.31378,-25.8225 15.9414,-54.8682 21.7134,-74.6032 0.0992127,-0.340158 0.243307,-0.670867 0.362599,-1.00866z"/>
   <path id="_449606184" class="fil24" d="M1164.4 836.408c-16.1977,10.8555 -28.8484,19.9382 -39.7654,22.2709 -31.9429,6.82323 -48.0048,-13.8709 -115.124,52.428 26.0327,-30.463 58.9784,-65.1603 90.691,-66.7595 21.2717,-1.07244 33.1087,5.85709 64.1989,-7.93938z"/>
   <path id="_449598144" class="fil24" d="M1011.65 927.597c22.9595,-22.6276 51.5563,-48.3981 75.3012,-49.5863 4.67835,-0.233858 15.0059,-0.701575 24.7618,-0.779528 -37.0748,7.90985 -60.3142,16.5036 -100.063,50.3658z"/>
   <path id="_449601600" class="fil7" d="M954.037 1167.49c32.1933,2.11772 63.8422,-1.23189 95.2926,-6.55749 7.59568,-1.2874 14.126,6.03544 14.2725,13.7386l1.0441 54.7748c0.145276,7.70316 -6.04371,14.6232 -13.7398,14.2725 -31.7646,-1.44921 -63.5292,-1.95709 -95.2926,1.81417 -7.65119,0.907087 -14.113,-6.03544 -14.2725,-13.7398l-1.04291 -50.0304c-0.159449,-7.70434 6.04961,-14.778 13.7386,-14.2725z"/>
   <path id="_449597424" class="fil7" d="M1208.51 1164.55l-11.4012 -16.0087c0.204331,-0.0732284 0.402756,-0.175984 0.588189,-0.308268l0 0c1.08307,-0.77126 1.33819,-2.28898 0.56693,-3.37205l-3.30473 -4.63937 3.67677 -2.61851 -6.10985 -8.57953 -3.67677 2.61851 -3.30473 -4.63937c-0.77126,-1.08307 -2.28898,-1.33819 -3.37205,-0.56693l0 0c-0.185433,0.132284 -0.347244,0.285827 -0.483071,0.455906l-11.4012 -16.0087c-1.72323,-2.4189 -5.11181,-2.98819 -7.53071,-1.26614l-71.2737 50.7626c-2.4189,1.72205 -2.98819,5.11063 -1.26496,7.52953l38.2217 53.667c1.72323,2.4189 5.11063,2.98819 7.53071,1.26496l71.2725 -50.7615c2.4189,-1.72323 2.98937,-5.11063 1.26614,-7.52953z"/>
   <rect id="_449620896" class="fil18" transform="matrix(-0.253035 -0.35528 -0.0179235 0.0127654 1207.35 1177.64)" width="196.849" height="252.336" rx="2.77677" ry="2.77677"/>
   <rect id="_449613264" class="fil18" transform="matrix(-0.253035 -0.35528 -0.0179235 0.0127654 1198.88 1183.67)" width="196.849" height="252.336" rx="2.77677" ry="2.77677"/>
   <rect id="_449608032" class="fil18" transform="matrix(-0.253035 -0.35528 -0.0179235 0.0127654 1190.42 1189.7)" width="196.849" height="252.336" rx="2.77677" ry="2.77677"/>
   <rect id="_449612136" class="fil18" transform="matrix(-0.253035 -0.35528 -0.0179235 0.0127654 1181.95 1195.73)" width="196.849" height="252.336" rx="2.77677" ry="2.77677"/>
   <path id="_449604864" class="fil7" d="M1052.55 1084.08l19.6394 0.732284c-0.0507874,-0.211417 -0.0744095,-0.432284 -0.0661418,-0.660237l0 0c0.0496063,-1.32992 1.17756,-2.3752 2.5063,-2.32559l5.69292 0.211417 0.167717 -4.50945 10.526 0.392126 -0.168898 4.51063 5.69174 0.212599c1.32992,0.0496063 2.37638,1.17756 2.32677,2.5063l0 0.0011811c-0.00826772,0.226772 -0.0484252,0.446457 -0.115748,0.65315l19.6406 0.733465c2.96693,0.111024 5.30433,2.62914 5.19331,5.59725l-3.26457 87.4406c-0.111024,2.96811 -2.62914,5.30552 -5.59725,5.19449l-65.8406 -2.45788c-2.96693,-0.111024 -5.30433,-2.62914 -5.19331,-5.59725l3.26457 -87.4418c0.111024,-2.96693 2.62914,-5.30433 5.59725,-5.19331z"/>
   <rect id="_449617032" class="fil18" transform="matrix(0.435874 0.0162739 -0.000821005 0.0219894 1042.25 1092.23)" width="196.849" height="252.336" rx="2.77677" ry="2.77677"/>
   <rect id="_449607264" class="fil18" transform="matrix(0.435874 0.0162739 -0.000821005 0.0219894 1041.87 1102.62)" width="196.849" height="252.336" rx="2.77677" ry="2.77677"/>
   <rect id="_449616192" class="fil18" transform="matrix(0.435874 0.0162739 -0.000821005 0.0219894 1041.48 1113.01)" width="196.849" height="252.336" rx="2.77677" ry="2.77677"/>
   <rect id="_449610624" class="fil18" transform="matrix(0.435874 0.0162739 -0.000821005 0.0219894 1041.09 1123.39)" width="196.849" height="252.336" rx="2.77677" ry="2.77677"/>
   <circle id="_449609136" class="fil18" transform="matrix(0.483694 0.172898 -0.172898 0.483694 1091.04 1196.18)" r="115.416"/>
   <circle id="_449613768" class="fil24" transform="matrix(0.384191 0.137331 -0.137331 0.384191 1091.04 1196.18)" r="115.416"/>
   <path id="_449612928" class="fil14" d="M1043.38 1244.4l0 0.0011811c0.285827,3.41221 -2.26181,6.63544 -5.68347,6.7252l-325.786 4.46575c-7.42323,0.102756 -8.27599,-9.03662 0.401575,-9.36379l324.342 -7.51064c3.42402,-0.080315 6.43938,2.27008 6.72638,5.68229z"/>
   <circle id="_449595672" class="fil4" cx="1036.55" cy="1244.9" r="11.2183"/>
   <circle id="_449620800" class="fil14" cx="1036.55" cy="1244.9" r="7.20547"/>
   <path id="_449615784" class="fil25" d="M1037.82 1239.48c-2.74961,-0.13937 -5.09528,1.97717 -5.23465,4.72678 -0.13937,2.74961 1.97717,5.09528 4.72678,5.23465 17.3008,0.935434 32.0221,-5.67638 61.6855,-19.0016l2.57599 -1.1563c2.51221,-1.12087 3.64016,-4.07008 2.51929,-6.58229 -1.12087,-2.51221 -4.07008,-3.64016 -6.58229,-2.51929l-2.57599 1.1563c-28.1918,12.6638 -42.1843,18.9484 -57.1146,18.1417z"/>
   <rect id="_449606256" class="fil17" x="1070.27" y="1217.74" width="46.6301" height="11.0881" rx="5.5441" ry="5.5441"/>
  </g>
 </g>
</svg>
